<svg xmlns="http://www.w3.org/2000/svg" xmlns:xlink="http://www.w3.org/1999/xlink" width="14" height="28" viewBox="0 0 14 28"><defs><path id="fcmma" d="M966.86 813.15c-.2-.2-.51-.2-.7 0l-6.15 6.59-6.17-6.59c-.19-.2-.5-.2-.7 0-.19.21-.19.55 0 .75l6.5 6.95c.1.1.22.15.35.15.13 0 .26-.05.35-.15l6.5-6.95c.2-.2.2-.54.02-.75z"/><path id="fcmmb" d="M966.86 803.15c-.2-.2-.51-.2-.7 0l-6.15 6.59-6.17-6.59c-.19-.2-.5-.2-.7 0-.19.21-.19.55 0 .75l6.5 6.95c.1.1.22.15.35.15.13 0 .26-.05.35-.15l6.5-6.95c.2-.2.2-.54.02-.75z"/><path id="fcmmc" d="M966.86 793.15c-.2-.2-.51-.2-.7 0l-6.15 6.59-6.17-6.59c-.19-.2-.5-.2-.7 0-.19.21-.19.55 0 .75l6.5 6.95c.1.1.22.15.35.15.13 0 .26-.05.35-.15l6.5-6.95c.2-.2.2-.54.02-.75z"/></defs><g><g transform="translate(-953 -793)"><use fill="#fff" xlink:href="#fcmma"/></g><g opacity=".49" transform="translate(-953 -793)"><use fill="#fff" xlink:href="#fcmmb"/></g><g opacity=".24" transform="translate(-953 -793)"><use fill="#fff" xlink:href="#fcmmc"/></g></g></svg>